<mxfile host="Electron" modified="2023-06-06T18:35:07.712Z" agent="Mozilla/5.0 (Windows NT 10.0; Win64; x64) AppleWebKit/537.36 (KHTML, like Gecko) draw.io/21.2.8 Chrome/112.0.5615.165 Electron/24.2.0 Safari/537.36" etag="Y88terIzVm2yi5KtjONW" version="21.2.8" type="device">
  <diagram name="Page-1" id="jM8dtylLwAR9HR2nDnaF">
    <mxGraphModel dx="2518" dy="820" grid="1" gridSize="10" guides="1" tooltips="1" connect="1" arrows="1" fold="1" page="1" pageScale="1" pageWidth="1100" pageHeight="850" math="0" shadow="0">
      <root>
        <mxCell id="0" />
        <mxCell id="1" parent="0" />
        <mxCell id="gddhVGtlSV6jSXQiqcLQ-1" value="&lt;font style=&quot;font-size: 14px;&quot;&gt;IPaycardValidator&lt;/font&gt;" style="swimlane;fontStyle=1;align=center;verticalAlign=top;childLayout=stackLayout;horizontal=1;startSize=30;horizontalStack=0;resizeParent=1;resizeParentMax=0;resizeLast=0;collapsible=1;marginBottom=0;whiteSpace=wrap;html=1;container=0;fontSize=14;" parent="1" vertex="1">
          <mxGeometry x="580" y="243" width="260" height="56" as="geometry" />
        </mxCell>
        <mxCell id="gddhVGtlSV6jSXQiqcLQ-4" value="&lt;span&gt;+ IsValidCard(string cardInfo): Paycard&lt;/span&gt;" style="text;strokeColor=none;fillColor=none;align=left;verticalAlign=top;spacingLeft=4;spacingRight=4;overflow=hidden;rotatable=0;points=[[0,0.5],[1,0.5]];portConstraint=eastwest;whiteSpace=wrap;html=1;container=0;fontSize=14;fontStyle=0" parent="gddhVGtlSV6jSXQiqcLQ-1" vertex="1">
          <mxGeometry y="30" width="260" height="26" as="geometry" />
        </mxCell>
        <mxCell id="gddhVGtlSV6jSXQiqcLQ-15" value="&lt;i&gt;PaymentCard&lt;/i&gt;" style="swimlane;fontStyle=1;align=center;verticalAlign=top;childLayout=stackLayout;horizontal=1;startSize=33;horizontalStack=0;resizeParent=1;resizeParentMax=0;resizeLast=0;collapsible=1;marginBottom=0;whiteSpace=wrap;html=1;container=0;fontSize=14;" parent="1" vertex="1">
          <mxGeometry x="-20" y="113" width="400" height="223" as="geometry" />
        </mxCell>
        <mxCell id="gddhVGtlSV6jSXQiqcLQ-42" value="# holderName: string" style="text;strokeColor=none;fillColor=none;align=left;verticalAlign=top;spacingLeft=4;spacingRight=4;overflow=hidden;rotatable=0;points=[[0,0.5],[1,0.5]];portConstraint=eastwest;whiteSpace=wrap;html=1;container=0;fontSize=14;" parent="gddhVGtlSV6jSXQiqcLQ-15" vertex="1">
          <mxGeometry y="33" width="400" height="26" as="geometry" />
        </mxCell>
        <mxCell id="gddhVGtlSV6jSXQiqcLQ-43" value="# cvv: ushort" style="text;strokeColor=none;fillColor=none;align=left;verticalAlign=top;spacingLeft=4;spacingRight=4;overflow=hidden;rotatable=0;points=[[0,0.5],[1,0.5]];portConstraint=eastwest;whiteSpace=wrap;html=1;container=0;fontSize=14;" parent="gddhVGtlSV6jSXQiqcLQ-15" vertex="1">
          <mxGeometry y="59" width="400" height="26" as="geometry" />
        </mxCell>
        <mxCell id="gddhVGtlSV6jSXQiqcLQ-44" value="# expireDate: DateTime" style="text;strokeColor=none;fillColor=none;align=left;verticalAlign=top;spacingLeft=4;spacingRight=4;overflow=hidden;rotatable=0;points=[[0,0.5],[1,0.5]];portConstraint=eastwest;whiteSpace=wrap;html=1;container=0;fontSize=14;" parent="gddhVGtlSV6jSXQiqcLQ-15" vertex="1">
          <mxGeometry y="85" width="400" height="26" as="geometry" />
        </mxCell>
        <mxCell id="gddhVGtlSV6jSXQiqcLQ-16" value="&lt;font style=&quot;font-size: 14px;&quot;&gt;# balance: decimal&lt;/font&gt;" style="text;strokeColor=none;fillColor=none;align=left;verticalAlign=top;spacingLeft=4;spacingRight=4;overflow=hidden;rotatable=0;points=[[0,0.5],[1,0.5]];portConstraint=eastwest;whiteSpace=wrap;html=1;container=0;fontSize=14;" parent="gddhVGtlSV6jSXQiqcLQ-15" vertex="1">
          <mxGeometry y="111" width="400" height="26" as="geometry" />
        </mxCell>
        <mxCell id="gddhVGtlSV6jSXQiqcLQ-19" value="" style="line;strokeWidth=1;fillColor=none;align=left;verticalAlign=middle;spacingTop=-1;spacingLeft=3;spacingRight=3;rotatable=0;labelPosition=right;points=[];portConstraint=eastwest;strokeColor=inherit;container=0;" parent="gddhVGtlSV6jSXQiqcLQ-15" vertex="1">
          <mxGeometry y="137" width="400" height="8" as="geometry" />
        </mxCell>
        <mxCell id="gddhVGtlSV6jSXQiqcLQ-20" value="&lt;font style=&quot;font-size: 14px;&quot;&gt;+ &amp;lt;&amp;lt;virtual, get, set&amp;gt;&amp;gt; CardNumber: string&lt;/font&gt;" style="text;strokeColor=none;fillColor=none;align=left;verticalAlign=top;spacingLeft=4;spacingRight=4;overflow=hidden;rotatable=0;points=[[0,0.5],[1,0.5]];portConstraint=eastwest;whiteSpace=wrap;html=1;container=0;fontSize=14;" parent="gddhVGtlSV6jSXQiqcLQ-15" vertex="1">
          <mxGeometry y="145" width="400" height="26" as="geometry" />
        </mxCell>
        <mxCell id="gddhVGtlSV6jSXQiqcLQ-52" value="+ &amp;lt;&amp;lt;abstract, get&amp;gt;&amp;gt; CanStartWith: IEnumerable&amp;lt;string&amp;gt;" style="text;strokeColor=none;fillColor=none;align=left;verticalAlign=top;spacingLeft=4;spacingRight=4;overflow=hidden;rotatable=0;points=[[0,0.5],[1,0.5]];portConstraint=eastwest;whiteSpace=wrap;html=1;container=0;fontSize=14;" parent="gddhVGtlSV6jSXQiqcLQ-15" vertex="1">
          <mxGeometry y="171" width="400" height="26" as="geometry" />
        </mxCell>
        <mxCell id="gddhVGtlSV6jSXQiqcLQ-51" value="+ &amp;lt;&amp;lt;abstract, get&amp;gt;&amp;gt; AllowedLength: IEnumerable&amp;lt;byte&amp;gt;" style="text;strokeColor=none;fillColor=none;align=left;verticalAlign=top;spacingLeft=4;spacingRight=4;overflow=hidden;rotatable=0;points=[[0,0.5],[1,0.5]];portConstraint=eastwest;whiteSpace=wrap;html=1;container=0;fontSize=14;" parent="gddhVGtlSV6jSXQiqcLQ-15" vertex="1">
          <mxGeometry y="197" width="400" height="26" as="geometry" />
        </mxCell>
        <mxCell id="gddhVGtlSV6jSXQiqcLQ-25" value="" style="endArrow=none;html=1;rounded=0;dashed=1;entryX=0.5;entryY=0;entryDx=0;entryDy=0;exitX=0.5;exitY=0;exitDx=0;exitDy=0;" parent="1" source="gddhVGtlSV6jSXQiqcLQ-59" target="gddhVGtlSV6jSXQiqcLQ-62" edge="1">
          <mxGeometry width="50" height="50" relative="1" as="geometry">
            <mxPoint x="-70" y="425" as="sourcePoint" />
            <mxPoint x="430" y="425" as="targetPoint" />
            <Array as="points">
              <mxPoint x="-70" y="400" />
              <mxPoint x="450" y="400" />
            </Array>
          </mxGeometry>
        </mxCell>
        <mxCell id="gddhVGtlSV6jSXQiqcLQ-26" value="" style="endArrow=block;html=1;rounded=0;endFill=0;endSize=16;dashed=1;entryX=0.5;entryY=1;entryDx=0;entryDy=0;" parent="1" target="gddhVGtlSV6jSXQiqcLQ-15" edge="1">
          <mxGeometry width="50" height="50" relative="1" as="geometry">
            <mxPoint x="180" y="396" as="sourcePoint" />
            <mxPoint x="180" y="336" as="targetPoint" />
          </mxGeometry>
        </mxCell>
        <mxCell id="gddhVGtlSV6jSXQiqcLQ-27" value="" style="endArrow=none;html=1;rounded=0;exitX=0.5;exitY=0;exitDx=0;exitDy=0;dashed=1;" parent="1" edge="1">
          <mxGeometry width="50" height="50" relative="1" as="geometry">
            <mxPoint x="180" y="426" as="sourcePoint" />
            <mxPoint x="180" y="396" as="targetPoint" />
          </mxGeometry>
        </mxCell>
        <mxCell id="gddhVGtlSV6jSXQiqcLQ-28" value="&lt;font style=&quot;font-size: 14px;&quot;&gt;&lt;u&gt;Luna&lt;/u&gt;&lt;/font&gt;" style="swimlane;fontStyle=1;align=center;verticalAlign=top;childLayout=stackLayout;horizontal=1;startSize=30;horizontalStack=0;resizeParent=1;resizeParentMax=0;resizeLast=0;collapsible=1;marginBottom=0;whiteSpace=wrap;html=1;container=0;fontSize=14;" parent="1" vertex="1">
          <mxGeometry x="580" y="450" width="260" height="56" as="geometry" />
        </mxCell>
        <mxCell id="gddhVGtlSV6jSXQiqcLQ-29" value="&lt;u&gt;+ IsValidNumbers(string numbers): bool&lt;/u&gt;" style="text;strokeColor=none;fillColor=none;align=left;verticalAlign=top;spacingLeft=4;spacingRight=4;overflow=hidden;rotatable=0;points=[[0,0.5],[1,0.5]];portConstraint=eastwest;whiteSpace=wrap;html=1;container=0;fontSize=14;" parent="gddhVGtlSV6jSXQiqcLQ-28" vertex="1">
          <mxGeometry y="30" width="260" height="26" as="geometry" />
        </mxCell>
        <mxCell id="gddhVGtlSV6jSXQiqcLQ-34" style="edgeStyle=orthogonalEdgeStyle;rounded=0;orthogonalLoop=1;jettySize=auto;html=1;entryX=0.5;entryY=1.015;entryDx=0;entryDy=0;entryPerimeter=0;endArrow=block;endFill=0;endSize=16;dashed=1;" parent="1" source="gddhVGtlSV6jSXQiqcLQ-30" target="gddhVGtlSV6jSXQiqcLQ-4" edge="1">
          <mxGeometry relative="1" as="geometry" />
        </mxCell>
        <mxCell id="gddhVGtlSV6jSXQiqcLQ-36" style="edgeStyle=orthogonalEdgeStyle;rounded=0;orthogonalLoop=1;jettySize=auto;html=1;exitX=0.5;exitY=1;exitDx=0;exitDy=0;entryX=0.5;entryY=0;entryDx=0;entryDy=0;endArrow=open;endFill=0;endSize=16;dashed=1;" parent="1" source="gddhVGtlSV6jSXQiqcLQ-30" target="gddhVGtlSV6jSXQiqcLQ-28" edge="1">
          <mxGeometry relative="1" as="geometry" />
        </mxCell>
        <mxCell id="gddhVGtlSV6jSXQiqcLQ-30" value="PaycardValidator" style="swimlane;fontStyle=1;align=center;verticalAlign=top;childLayout=stackLayout;horizontal=1;startSize=30;horizontalStack=0;resizeParent=1;resizeParentMax=0;resizeLast=0;collapsible=1;marginBottom=0;whiteSpace=wrap;html=1;container=0;fontSize=14;" parent="1" vertex="1">
          <mxGeometry x="630" y="350" width="160" height="30" as="geometry" />
        </mxCell>
        <mxCell id="gddhVGtlSV6jSXQiqcLQ-37" style="edgeStyle=orthogonalEdgeStyle;rounded=0;orthogonalLoop=1;jettySize=auto;html=1;exitX=0;exitY=0.5;exitDx=0;exitDy=0;entryX=1;entryY=0.5;entryDx=0;entryDy=0;endArrow=open;endFill=0;endSize=16;dashed=1;" parent="1" source="gddhVGtlSV6jSXQiqcLQ-1" target="gddhVGtlSV6jSXQiqcLQ-20" edge="1">
          <mxGeometry relative="1" as="geometry">
            <Array as="points" />
          </mxGeometry>
        </mxCell>
        <mxCell id="gddhVGtlSV6jSXQiqcLQ-38" value="Повертає" style="text;html=1;strokeColor=none;fillColor=none;align=center;verticalAlign=middle;whiteSpace=wrap;rounded=0;fontSize=14;" parent="1" vertex="1">
          <mxGeometry x="440" y="240" width="60" height="30" as="geometry" />
        </mxCell>
        <mxCell id="gddhVGtlSV6jSXQiqcLQ-39" value="Реалізує" style="text;html=1;strokeColor=none;fillColor=none;align=left;verticalAlign=middle;whiteSpace=wrap;rounded=0;fontSize=14;" parent="1" vertex="1">
          <mxGeometry x="720" y="320" width="60" height="30" as="geometry" />
        </mxCell>
        <mxCell id="gddhVGtlSV6jSXQiqcLQ-40" value="Залежить,&lt;br style=&quot;font-size: 14px;&quot;&gt;користується методом" style="text;html=1;strokeColor=none;fillColor=none;align=left;verticalAlign=middle;whiteSpace=wrap;rounded=0;fontSize=14;" parent="1" vertex="1">
          <mxGeometry x="720" y="390" width="150" height="40" as="geometry" />
        </mxCell>
        <mxCell id="gddhVGtlSV6jSXQiqcLQ-41" value="Генералізація" style="text;html=1;strokeColor=none;fillColor=none;align=left;verticalAlign=middle;whiteSpace=wrap;rounded=0;fontSize=14;" parent="1" vertex="1">
          <mxGeometry x="190" y="360" width="100" height="30" as="geometry" />
        </mxCell>
        <mxCell id="gddhVGtlSV6jSXQiqcLQ-47" value="&lt;b style=&quot;border-color: var(--border-color);&quot;&gt;MasterCard&lt;/b&gt;" style="swimlane;fontStyle=1;align=center;verticalAlign=top;childLayout=stackLayout;horizontal=1;startSize=30;horizontalStack=0;resizeParent=1;resizeParentMax=0;resizeLast=0;collapsible=1;marginBottom=0;whiteSpace=wrap;html=1;container=0;fontSize=14;" parent="1" vertex="1">
          <mxGeometry x="70" y="426" width="240" height="110" as="geometry" />
        </mxCell>
        <mxCell id="gddhVGtlSV6jSXQiqcLQ-48" value="&lt;span&gt;+ &amp;lt;&amp;lt;override,get&amp;gt;&amp;gt;&amp;nbsp;&lt;/span&gt;CanStartWith: IEnumerable&amp;lt;string&amp;gt;" style="text;strokeColor=none;fillColor=none;align=left;verticalAlign=top;spacingLeft=4;spacingRight=4;overflow=hidden;rotatable=0;points=[[0,0.5],[1,0.5]];portConstraint=eastwest;whiteSpace=wrap;html=1;container=0;fontSize=14;fontStyle=0" parent="gddhVGtlSV6jSXQiqcLQ-47" vertex="1">
          <mxGeometry y="30" width="240" height="40" as="geometry" />
        </mxCell>
        <mxCell id="gddhVGtlSV6jSXQiqcLQ-58" value="+ &amp;lt;&amp;lt;override,get&amp;gt;&amp;gt; AllowedLength: IEnumerable&amp;lt;byte&amp;gt;" style="text;strokeColor=none;fillColor=none;align=left;verticalAlign=top;spacingLeft=4;spacingRight=4;overflow=hidden;rotatable=0;points=[[0,0.5],[1,0.5]];portConstraint=eastwest;whiteSpace=wrap;html=1;container=0;fontSize=14;fontStyle=0" parent="gddhVGtlSV6jSXQiqcLQ-47" vertex="1">
          <mxGeometry y="70" width="240" height="40" as="geometry" />
        </mxCell>
        <mxCell id="gddhVGtlSV6jSXQiqcLQ-59" value="&lt;b style=&quot;border-color: var(--border-color);&quot;&gt;AmericanExpress&lt;/b&gt;" style="swimlane;fontStyle=1;align=center;verticalAlign=top;childLayout=stackLayout;horizontal=1;startSize=30;horizontalStack=0;resizeParent=1;resizeParentMax=0;resizeLast=0;collapsible=1;marginBottom=0;whiteSpace=wrap;html=1;container=0;fontSize=14;" parent="1" vertex="1">
          <mxGeometry x="-190" y="425" width="240" height="110" as="geometry" />
        </mxCell>
        <mxCell id="gddhVGtlSV6jSXQiqcLQ-60" value="&lt;span&gt;+ &amp;lt;&amp;lt;override,get&amp;gt;&amp;gt;&amp;nbsp;&lt;/span&gt;CanStartWith: IEnumerable&amp;lt;string&amp;gt;" style="text;strokeColor=none;fillColor=none;align=left;verticalAlign=top;spacingLeft=4;spacingRight=4;overflow=hidden;rotatable=0;points=[[0,0.5],[1,0.5]];portConstraint=eastwest;whiteSpace=wrap;html=1;container=0;fontSize=14;fontStyle=0" parent="gddhVGtlSV6jSXQiqcLQ-59" vertex="1">
          <mxGeometry y="30" width="240" height="40" as="geometry" />
        </mxCell>
        <mxCell id="gddhVGtlSV6jSXQiqcLQ-61" value="+ &amp;lt;&amp;lt;override,get&amp;gt;&amp;gt; AllowedLength: IEnumerable&amp;lt;byte&amp;gt;" style="text;strokeColor=none;fillColor=none;align=left;verticalAlign=top;spacingLeft=4;spacingRight=4;overflow=hidden;rotatable=0;points=[[0,0.5],[1,0.5]];portConstraint=eastwest;whiteSpace=wrap;html=1;container=0;fontSize=14;fontStyle=0" parent="gddhVGtlSV6jSXQiqcLQ-59" vertex="1">
          <mxGeometry y="70" width="240" height="40" as="geometry" />
        </mxCell>
        <mxCell id="gddhVGtlSV6jSXQiqcLQ-62" value="&lt;b style=&quot;border-color: var(--border-color);&quot;&gt;Visa&lt;/b&gt;" style="swimlane;fontStyle=1;align=center;verticalAlign=top;childLayout=stackLayout;horizontal=1;startSize=30;horizontalStack=0;resizeParent=1;resizeParentMax=0;resizeLast=0;collapsible=1;marginBottom=0;whiteSpace=wrap;html=1;container=0;fontSize=14;" parent="1" vertex="1">
          <mxGeometry x="330" y="426" width="240" height="110" as="geometry" />
        </mxCell>
        <mxCell id="gddhVGtlSV6jSXQiqcLQ-63" value="&lt;span&gt;+ &amp;lt;&amp;lt;override,get&amp;gt;&amp;gt;&amp;nbsp;&lt;/span&gt;CanStartWith: IEnumerable&amp;lt;string&amp;gt;" style="text;strokeColor=none;fillColor=none;align=left;verticalAlign=top;spacingLeft=4;spacingRight=4;overflow=hidden;rotatable=0;points=[[0,0.5],[1,0.5]];portConstraint=eastwest;whiteSpace=wrap;html=1;container=0;fontSize=14;fontStyle=0" parent="gddhVGtlSV6jSXQiqcLQ-62" vertex="1">
          <mxGeometry y="30" width="240" height="40" as="geometry" />
        </mxCell>
        <mxCell id="gddhVGtlSV6jSXQiqcLQ-64" value="+ &amp;lt;&amp;lt;override,get&amp;gt;&amp;gt; AllowedLength: IEnumerable&amp;lt;byte&amp;gt;" style="text;strokeColor=none;fillColor=none;align=left;verticalAlign=top;spacingLeft=4;spacingRight=4;overflow=hidden;rotatable=0;points=[[0,0.5],[1,0.5]];portConstraint=eastwest;whiteSpace=wrap;html=1;container=0;fontSize=14;fontStyle=0" parent="gddhVGtlSV6jSXQiqcLQ-62" vertex="1">
          <mxGeometry y="70" width="240" height="40" as="geometry" />
        </mxCell>
      </root>
    </mxGraphModel>
  </diagram>
</mxfile>
